<?xml version="1.0" encoding="UTF-8"?>
<svg id="Layer_1" data-name="Layer 1" xmlns="http://www.w3.org/2000/svg" viewBox="0 0 550 200">
  <defs>
    <style>
      .cls-1 {
        fill: #113a2a;
      }
    </style>
  </defs>
  <g>
    <g>
      <path class="cls-1" d="M196.75,20.92h-18.17l-41.39,98.56h19.58l7.73-19h46.32l7.75,19h19.71L196.75,20.92Zm-26.05,64.34l17.04-41.66,16.89,41.66h-33.93Z"/>
      <path class="cls-1" d="M307.97,82.74c11.7-4.94,18.32-15.22,18.32-28.74,0-9.84-3.25-17.87-9.86-23.92-6.47-6.06-15.2-9.16-26.2-9.16h-33.93V119.49h18.44v-33.52h16.33l21.98,33.52h19.56l-24.65-36.74Zm-18.71-12.67h-14.51V37.96h14.51c11.68,0,18.59,5.35,18.59,16.05s-6.9,16.06-18.59,16.06Z"/>
      <path class="cls-1" d="M350.64,20.92v17.04h25.2V119.49h18.44V37.96h25.35V20.92h-69Z"/>
      <path class="cls-1" d="M483.46,20.92h-18.17l-41.39,98.56h19.58l7.73-19h46.33l7.73,19h19.72l-41.54-98.56Zm-26.05,64.34l17.04-41.66,16.89,41.66h-33.93Z"/>
    </g>
    <g>
      <polygon class="cls-1" points="113.7 20.92 81.23 45.86 81.23 20.92 113.7 20.92"/>
      <polygon class="cls-1" points="69.49 54.88 120.88 119.49 97.63 119.49 92.71 113.29 55.06 65.97 69.49 54.88"/>
      <rect class="cls-1" x="25" y="20.92" width="18.19" height="98.56"/>
    </g>
  </g>
  <g>
    <path class="cls-1" d="M36.7,158.22c-4.92,0-8.93,3.95-8.93,9.13s4.02,9.13,8.93,9.13c3.12,0,5.24-1.35,6.43-2.48v2.8c-1.32,1.13-3.54,2.28-6.75,2.28-6.4,0-11.38-5.21-11.38-11.73s4.98-11.73,11.38-11.73c3.21,0,5.43,1.16,6.75,2.28v2.8c-1.22-1.12-3.31-2.48-6.43-2.48Z"/>
    <path class="cls-1" d="M58.46,167.35c0-6.46,5.01-11.73,11.51-11.73s11.54,5.27,11.54,11.73-5.01,11.73-11.54,11.73-11.51-5.27-11.51-11.73Zm20.28,0c0-4.98-3.79-9.13-8.78-9.13s-8.74,4.15-8.74,9.13,3.79,9.13,8.74,9.13,8.78-4.15,8.78-9.13Z"/>
    <path class="cls-1" d="M116.25,155.93v22.82h-2.76l-12.92-18.16v18.16h-2.76v-22.82h2.76l12.92,18.16v-18.16h2.76Z"/>
    <path class="cls-1" d="M135.37,172.39c.19,2.76,2.35,4.08,4.56,4.08,2.64,0,4.24-1.38,4.24-3.28,0-2.41-2.19-3.57-4.92-4.95-4.02-2.15-6.17-3.63-6.17-7.04s2.89-5.59,6.49-5.59,6.33,2.8,6.52,6.24h-2.76c-.19-2.12-1.67-3.63-3.76-3.63s-3.73,1.25-3.73,3.12c0,2.38,1.8,3.18,4.31,4.4,4.02,2.06,6.75,3.95,6.75,7.55s-3.02,5.79-6.98,5.79c-4.18,0-7.14-2.89-7.33-6.69h2.76Z"/>
    <path class="cls-1" d="M171.27,179.08c-5.37,0-8.84-3.02-8.84-9.71v-13.44h2.73v13.44c0,5.14,2.44,7.1,6.11,7.1s6.11-1.96,6.11-7.1v-13.44h2.76v13.44c0,6.69-3.47,9.71-8.87,9.71Z"/>
    <path class="cls-1" d="M209.04,176.15v2.6h-12.09v-22.82h2.76v20.22h9.32Z"/>
    <path class="cls-1" d="M235.68,158.54h-5.59v20.22h-2.76v-20.22h-5.59v-2.6h13.95v2.6Z"/>
    <path class="cls-1" d="M251.33,155.93h2.76v22.82h-2.76v-22.82Z"/>
    <path class="cls-1" d="M289.06,155.93v22.82h-2.76l-12.92-18.16v18.16h-2.76v-22.82h2.76l12.92,18.16v-18.16h2.76Z"/>
    <path class="cls-1" d="M327.92,166.54c0,7.52-4.6,12.54-11.41,12.54s-11.25-5.34-11.25-11.73,4.72-11.73,11.54-11.73c4.02,0,6.98,1.93,9.03,4.76l-2.12,1.61c-1.45-2.06-3.7-3.76-6.91-3.76-5.11,0-8.78,4.08-8.78,9.13s3.54,9.13,8.48,9.13c4.6,0,7.81-3.05,8.52-7.33h-9.13v-2.6h12.02Z"/>
    <path class="cls-1" d="M389.6,166.54c0,7.52-4.6,12.54-11.41,12.54s-11.25-5.34-11.25-11.73,4.72-11.73,11.54-11.73c4.02,0,6.98,1.93,9.03,4.76l-2.12,1.61c-1.45-2.06-3.7-3.76-6.91-3.76-5.11,0-8.78,4.08-8.78,9.13s3.54,9.13,8.49,9.13c4.6,0,7.81-3.05,8.52-7.33h-9.13v-2.6h12.02Z"/>
    <path class="cls-1" d="M413.09,171.11h-5.01v7.65h-2.73v-22.82h8.13c3.89,0,7.46,2.86,7.46,7.59,0,3.7-2.19,6.24-4.98,7.2l5.14,8.04h-3.15l-4.85-7.65Zm-5.01-2.6h5.4c2.51,0,4.73-1.86,4.73-4.98s-2.22-4.98-4.73-4.98h-5.4v9.96Z"/>
    <path class="cls-1" d="M436.29,167.35c0-6.46,5.01-11.73,11.51-11.73s11.54,5.27,11.54,11.73-5.01,11.73-11.54,11.73-11.51-5.27-11.51-11.73Zm20.28,0c0-4.98-3.79-9.13-8.78-9.13s-8.74,4.15-8.74,9.13,3.79,9.13,8.74,9.13,8.78-4.15,8.78-9.13Z"/>
    <path class="cls-1" d="M484.18,179.08c-5.37,0-8.84-3.02-8.84-9.71v-13.44h2.73v13.44c0,5.14,2.44,7.1,6.11,7.1s6.11-1.96,6.11-7.1v-13.44h2.76v13.44c0,6.69-3.47,9.71-8.87,9.71Z"/>
    <path class="cls-1" d="M525,163.42c0,4.92-3.63,7.52-8.07,7.52h-4.79v7.81h-2.73v-22.82h7.52c4.44,0,8.07,2.6,8.07,7.49Zm-2.73,0c0-3.31-2.28-4.89-5.34-4.89h-4.79v9.77h4.79c3.05,0,5.34-1.58,5.34-4.89Z"/>
  </g>
</svg>